<?xml version="1.0" encoding="UTF-8"?>
<svg id="_图层_1" data-name="图层_1" xmlns="http://www.w3.org/2000/svg" xmlns:xlink="http://www.w3.org/1999/xlink" version="1.1" viewBox="0 0 6267 1202">
  <!-- Generator: Adobe Illustrator 29.1.0, SVG Export Plug-In . SVG Version: 2.1.0 Build 142)  -->
  <defs>
    <style>
      .st0 {
        mask: url(#mask);
      }

      .st1, .st2, .st3, .st4, .st5 {
        fill-rule: evenodd;
      }

      .st1, .st6 {
        fill: #fff;
      }

      .st2, .st7 {
        fill: #009853;
      }

      .st3, .st8, .st9 {
        fill: #0e1b20;
      }

      .st10 {
        fill: #d9d9d9;
      }

      .st4, .st11 {
        fill: #b2b8c7;
      }

      .st12 {
        mask: url(#mask-2);
      }

      .st13 {
        mask: url(#mask-3);
      }

      .st14 {
        mask: url(#mask-1);
      }

      .st5 {
        fill: #0a4a23;
      }

      .st15 {
        fill: none;
        stroke-linecap: round;
        stroke-width: 8px;
      }

      .st15, .st9, .st11 {
        stroke: #0e1b20;
      }

      .st16 {
        mask: url(#mask-41);
      }

      .st9 {
        stroke-width: 7px;
      }

      .st11 {
        stroke-width: 10px;
      }
    </style>
    <mask id="mask" x="0" y="0" width="6266.4" height="1202" maskUnits="userSpaceOnUse">
      <g id="mask0_1368_92">
        <rect class="st10" width="6266.4" height="1202"/>
      </g>
    </mask>
    <mask id="mask-1" x="1456.4" y="224.4" width="4910.5" height="939" maskUnits="userSpaceOnUse">
      <g id="mask1_1368_92">
        <rect class="st10" x="1456.4" y="224.4" width="4910.5" height="939"/>
      </g>
    </mask>
    <mask id="mask-2" x="123.7" y="607.1" width="1139.3" height="215.4" maskUnits="userSpaceOnUse">
      <g id="mask-4">
        <path id="path-3" class="st1" d="M157.8,709.6c0,35.4,135.1,65.7,327.5,78.6,32.1,2.2,65.9-10.8,100.8-24.2,34.7-13.3,70.5-27.1,107.2-27.1s72.6,13.8,107.2,27.1c35,13.4,68.7,26.4,100.8,24.2,192.4-12.9,327.5-43.3,327.5-78.6l-233.7-40.9-301.9-27.3-301.9,27.3-233.7,40.9Z"/>
      </g>
    </mask>
    <mask id="mask-3" x="44.9" y="517.4" width="1296.7" height="636.3" maskUnits="userSpaceOnUse">
      <g id="mask-6">
        <path id="path-5" class="st1" d="M230.4,676.7l408.3-124,514.2,116.8c35.4,76.5,83.5,135.6,139,168.4-122.5,168.9-344.8,281.8-598.7,281.8s-476.1-112.8-598.6-281.7c53.8-31.7,100.7-88.1,135.8-161.2Z"/>
      </g>
    </mask>
    <mask id="mask-41" data-name="mask-4" x="107.6" y="75.8" width="1171.6" height="676.6" maskUnits="userSpaceOnUse">
      <g id="mask-8">
        <path id="path-7" class="st1" d="M633.7,150.2c-36.7,26.2-56.7,70.6-66.6,109-165.7,45.3-295.5,177.7-337.1,344.9l-2.4,2.1c-32.2,27.5-56.3,63.3-69.7,103.4,0,0,207.9-34.1,535.6-34.1s535.6,34.1,535.6,34.1c-13.4-40.2-37.5-75.9-69.7-103.4l-2.4-2.1c-44.8-180.2-192-320-376.3-353.9,33.1-48.9,29.6-99.1,19.1-129.3-2.8-8.2-11.5-12.7-19.9-10.5-33.1,8.6-63.7,29.3-76.2,39.7-1.2-8.7-4.6-16.6-8.7-23.3-6.9-11.2-23.3-8.4-32.9.7-9.8,9.3-21.4,18-28.3,22.6ZM1171,722.9c0-1,0-2.1,0-3.1s0-2.1,0-3.1v6.1Z"/>
      </g>
    </mask>
  </defs>
  <g class="st0">
    <g class="st14">
      <g>
        <path class="st1" d="M3269.8,328.4c40.2-31.2,98.1-23.9,129.4,16.3l185.9,261.1,185.9-261.1c31.2-40.2,89.2-47.5,129.4-16.3,23.6,18.3,35.8,45.8,35.6,73.5.2,2.7.4,5.4.4,8.2v576.3c0,50.9-41.3,92.2-92.2,92.2s-92.2-41.3-92.2-92.2v-316.6l-92.9,141.4c-18.4,23.7-46.1,36-73.9,35.7-27.9.3-55.5-12-73.9-35.7l-95.2-144.3v319.5c0,50.9-41.3,92.2-92.2,92.2s-92.2-41.3-92.2-92.2V410.2c0-10.7,1.8-21,5.2-30.5,4.7-19.6,15.9-37.9,33.1-51.2ZM1963.7,502.4v484.1c0,50.9-41.3,92.2-92.2,92.2s-92.2-41.3-92.2-92.2v-484.1h-115.2c-50.9,0-92.2-41.3-92.2-92.2s41.3-92.2,92.2-92.2h891.4c50.9,0,92.2,41.3,92.2,92.2s-41.3,92.2-92.2,92.2h-192.2v99.9h192.1c50.9,0,92.2,41.3,92.2,92.2s-41.3,92.2-92.2,92.2h-192.1v107.6h192.1c50.9,0,92.2,41.3,92.2,92.2s-41.3,92.2-92.2,92.2h-284.3c-50.9,0-92.2-41.3-92.2-92.2v-484.1h-215.2ZM2904.4,318h-103.9c-50.9,0-92.2,41.3-92.2,92.2v576.3c0,50.9,41.3,92.2,92.2,92.2h284.5c50.9,0,92.2-41.3,92.2-92.2s-41.3-92.2-92.2-92.2h-192.3v-107.6h192.3c50.9,0,92.2-41.3,92.2-92.2s-41.3-92.2-92.2-92.2h-192.3v-100.6c3.8.5,7.7.7,11.7.7h180.6c50.9,0,92.2-41.3,92.2-92.2s-41.3-92.2-92.2-92.2h-180.6Z"/>
        <path class="st1" d="M4308.5,318c187,0,338.5,167.7,338.5,374.6s-151.5,374.6-338.5,374.6-338.5-167.7-338.5-374.6,151.5-374.6,338.5-374.6ZM4308.5,502.4c-76.9,0-154.1,75.9-154.1,190.2s77.1,190.2,154.1,190.2,154.1-75.9,154.1-190.2-77.1-190.2-154.1-190.2Z"/>
        <path class="st7" d="M4875.2,318v668.5c0,50.9-41.3,92.2-92.2,92.2s-92.2-41.3-92.2-92.2V410.2c0-50.9,41.3-92.2,92.2-92.2h92.2Z"/>
        <path class="st7" d="M5946.5,629.2c50.9,0,92.2,41.3,92.2,92.2v265.1c0,50.9-41.3,92.2-92.2,92.2s-92.2-41.3-92.2-92.2v-265.1c0-50.9,41.3-92.2,92.2-92.2Z"/>
        <path class="st7" d="M5757.4,318c32,0,61.8,16.6,78.5,43.9l163.1,265.1c37.8,61.4-6.4,140.5-78.5,140.5h-57.8l-204.6-332.4c-31.5-51.2,5.3-117.1,65.4-117.1h33.8Z"/>
        <path class="st7" d="M6135.6,318c-32,0-61.8,16.6-78.5,43.9l-163.1,265.1c-37.8,61.4,6.4,140.5,78.5,140.5h57.8l204.6-332.4c31.5-51.2-5.3-117.1-65.4-117.1h-33.8Z"/>
        <path class="st7" d="M5431.6,318c60.3,0,102,60.2,80.9,116.6l-219.8,588c-12.6,33.8-44.9,56.1-80.9,56.1-60.3,0-102-60.2-80.9-116.6l219.8-588c12.6-33.8,44.9-56.1,80.9-56.1Z"/>
        <path class="st7" d="M5474.5,318c-60.3,0-102,60.2-80.9,116.6l219.8,588c12.6,33.8,44.9,56.1,80.9,56.1,60.3,0,102-60.2,80.9-116.6l-219.8-588c-12.6-33.8-44.9-56.1-80.9-56.1Z"/>
        <path class="st2" d="M4875.2,502.4v165.2h80.3c45.6,0,82.6-37,82.6-82.6s-37-82.6-82.6-82.6h-80.3ZM4783,318c-50.9,0-92.2,41.3-92.2,92.2v441.8h264.7c147.5,0,267-119.6,267-267s-119.6-267-267-267h-172.5Z"/>
        <path class="st7" d="M5277.2,752.9h342v184.4h-342v-184.4Z"/>
        <path class="st7" d="M5428.6,318h50.7v23.1h-50.7v-23.1Z"/>
      </g>
    </g>
  </g>
  <g>
    <g>
      <path class="st6" d="M110,638.4c14.5-29,33.8-55.7,56.7-78.6-13.2-35.3-22-72.6-26.2-111.1-4-34.5-3.9-70,.3-105.2l.2-1.3c.3-1.9.6-4,1-6.1,2-11.5,6-28.9,14-46.8,17.5-39.2,43.3-54.8,61.8-61l3.4-1h.5c11.9-3.3,27-4.9,45-4.9s2.3,0,3.5,0c18.9.2,40.3,2.1,61.8,5.6,24.5,4,49.5,9.9,74.3,17.7,33.9-21.1,69.9-38.3,107.4-51.4,18.3-47.3,46.1-85,81-109.9l.9-.6,1-.6c5-3.3,13.2-9.5,19.1-15.2,16.4-15.6,37.5-25,59.6-26.6,2.1-.1,4.2-.2,6.3-.2,13.8,0,27,3.1,38.7,9,14.5-6.9,28.9-12.2,43-15.9,7-1.8,14.3-2.8,21.6-2.8,36.1,0,68.3,22.9,80.1,57,11.4,33,13.9,69.9,7.6,105.3,38.3,13.2,74.9,30.7,109.4,52.1,24.8-7.8,49.7-13.8,74.2-17.7,21.5-3.5,42.9-5.4,61.9-5.6,1,0,2.1,0,3.2,0,18.1,0,33.3,1.6,45.2,4.8l1.1.3,2.5.8.5.2c18.5,6.2,44.3,21.8,61.8,61,7.9,17.7,11.9,34.8,13.9,46.2.4,2.3.8,4.6,1.1,6.7l.2,1.3c4.2,35.6,4.3,71.4.2,106.6-4.2,37.8-12.9,74.8-26,109.8,22.9,22.9,42.2,49.7,56.7,78.7h0l19.8,49.7,26.2,78.5c1.1.7,2.2,1.4,3.3,2l29.4,17.3-18.9,32,30.1,21.8-20,27.6c-67.8,93.5-163.2,171.6-275.8,225.7-114.7,55.1-245.5,84.3-378.2,84.3s-263.4-29.1-378.1-84.3c-101.5-48.8-189-117-255-198.5l-.7.5L-4.1,806.8l64.7-38.1c1.2-.7,2.3-1.4,3.5-2.1l26.2-78.5"/>
      <path class="st6" d="M1292.6,827.4s0,0,0,0l17.3-29.4c-23.2-13.7-45.6-33.3-66.4-58.1,1.2-1.1,2.4-2.1,3.5-3.3l32.7,5.4-16.1-48.3v-23.1l-9.1-1.6c-15.1-35.8-37.9-67.9-66.8-94.1-1.2-4.5-2.5-8.9-3.8-13.3,13.4-32.1,24.7-71.1,29.5-115.6,3.6-30.3,4-63.3-.1-98.5v-.2s0-.2,0-.2c-.3-1.7-.6-3.6-.9-5.5-1.4-8-4.6-23.1-11.4-38.4-10-22.4-24-36.7-41.5-42.6l-2-.6c-11.9-3.2-27.9-3.7-39.2-3.6-17.2.2-36.9,2-56.8,5.2-21.9,3.5-51.2,10-84.4,21.5-44.3-29.4-93.4-52.1-145.9-66.7,16.2-45.1,11.5-88,1.4-117.1-8.9-25.7-35.7-38.9-60.8-32.3-19.8,5.2-38.6,13.8-54.2,22.6-11.6-11.8-27.2-15.4-40-14.5-14.7,1.1-28.5,7.7-38.5,17.3-8,7.7-18,15.1-23.7,18.9l-.5.3-.4.3c-39.5,28.2-61.9,71.4-74.3,109.3-46.2,14.6-89.6,35.5-129.1,61.8-33.3-11.6-62.5-18-84.5-21.6-19.9-3.2-39.5-5-56.8-5.2-11.3-.1-27.3.4-39.2,3.6l-2,.6c-17.5,5.9-31.5,20.2-41.5,42.6-6.9,15.5-10.2,30.8-11.5,38.9-.3,1.8-.6,3.4-.9,5v.2s0,.2,0,.2c-4.1,34.8-3.7,67.5-.3,97.5,4.8,44.9,16.2,84.2,29.7,116.6-1.3,4.4-2.6,8.8-3.8,13.2-28.9,26.1-51.7,58.3-66.8,94.1l-9.1,1.6v23.1l-16.1,48.3,32.7-5.4c1.1,1.1,2.3,2.2,3.5,3.3-20.8,24.9-43.3,44.5-66.6,58.2l-32.3,19,22,30.4,27.6-20s0,0,0,0h0s-27.6,20-27.6,20c129.6,178.6,362.7,295.7,626.3,295.7s496.7-117.2,626.4-295.9l-27.6-20s0,0,0,0ZM567.7,248.8h0s0,0,0,0h0Z"/>
      <polygon class="st6" points="1247.5 836.8 1298 751.3 1391.9 806.8 1327.8 895.1 1247.5 836.8"/>
      <polygon class="st6" points="1310 798 1292.6 827.4 1320.3 847.4 1342.3 817.1 1310 798"/>
    </g>
    <g>
      <path id="_路径" data-name="路径" class="st5" d="M157.8,709.6c0,35.4,135.1,65.7,327.5,78.6,32.1,2.2,65.9-10.8,100.8-24.2,34.7-13.3,70.5-27.1,107.2-27.1s72.6,13.8,107.2,27.1c35,13.4,68.7,26.4,100.8,24.2,192.4-12.9,327.5-43.3,327.5-78.6l-233.7-40.9-301.9-27.3-301.9,27.3-233.7,40.9Z"/>
      <g id="Clipped">
        <g class="st12">
          <path id="_形状" data-name="形状" class="st8" d="M485.3,788.2l2.3-34h0l-2.3,34ZM157.8,709.6l-5.9-33.6-28.2,4.9v28.7h34.1ZM586.2,764l12.2,31.8h0l-12.2-31.8ZM800.6,764l-12.2,31.8h0l12.2-31.8ZM901.5,788.2l-2.3-34h0l2.3,34ZM1229,709.6h34.1v-28.7l-28.2-4.9-5.9,33.6ZM995.3,668.7l5.9-33.6-1.4-.2h-1.4c0-.1-3.1,33.8-3.1,33.8ZM693.4,641.4l3.1-34-3.1-.3-3.1.3,3.1,34ZM391.5,668.7l-3.1-34h-1.4c0,.1-1.4.4-1.4.4l5.9,33.6ZM487.6,754.2c-95.3-6.4-175.1-17-230.4-30.1-27.9-6.6-47.7-13.3-59.8-19.5-6.1-3.1-8.4-5.2-8.9-5.6-.3-.3,3.3,3.4,3.3,10.6h-68.2c0,16.1,7.8,28.5,15.7,36.6,7.7,8,17.4,14.2,27,19.1,19.3,9.9,45.3,18.1,75.2,25.2,60.4,14.2,144.3,25.2,241.4,31.7l4.6-68.1ZM573.9,732.1c-37,14.2-63.2,23.6-86.3,22l-4.6,68.1c41.1,2.8,82.4-13.8,115.4-26.4l-24.5-63.7ZM693.4,702.8c-44.2,0-86.1,16.5-119.5,29.4l24.5,63.7c35.9-13.8,65.7-24.8,95-24.8v-68.2ZM812.9,732.1c-33.4-12.8-75.3-29.4-119.5-29.4v68.2c29.3,0,59.1,11,95,24.8l24.5-63.7ZM899.2,754.2c-23.1,1.6-49.4-7.8-86.3-22l-24.5,63.7c33,12.7,74.2,29.2,115.4,26.4l-4.6-68.1ZM1194.8,709.6c0-7.3,3.6-10.9,3.3-10.6-.4.4-2.8,2.5-8.9,5.6-12.1,6.2-31.8,12.9-59.8,19.5-55.3,13-135.1,23.7-230.4,30.1l4.6,68.1c97.1-6.5,181.1-17.5,241.4-31.7,29.9-7,55.9-15.3,75.2-25.2,9.6-4.9,19.3-11.1,27-19.1,7.8-8.2,15.7-20.5,15.7-36.6h-68.2ZM1234.8,676l-233.7-40.9-11.8,67.2,233.7,40.9,11.8-67.2ZM998.4,634.7l-301.9-27.3-6.1,67.9,301.9,27.3,6.1-67.9ZM690.3,607.4l-301.9,27.3,6.1,67.9,301.9-27.3-6.1-67.9ZM385.6,635.1l-233.7,40.9,11.8,67.2,233.7-40.9-11.8-67.2Z"/>
        </g>
      </g>
      <path id="_路径2" data-name="路径" class="st1" d="M230.4,676.7l408.3-124,514.2,116.8c35.4,76.5,83.5,135.6,139,168.4-122.5,168.9-344.8,281.8-598.7,281.8s-476.1-112.8-598.6-281.7c53.8-31.7,100.7-88.1,135.8-161.2Z"/>
      <g id="Clipped1" data-name="Clipped">
        <g class="st13">
          <path id="_形状1" data-name="形状" class="st8" d="M638.7,552.7l7.6-33.3-8.8-2-8.7,2.6,9.9,32.6ZM230.4,676.7l-9.9-32.6-14.3,4.4-6.5,13.5,30.7,14.8ZM1152.9,669.4l31-14.3-7-15.2-16.4-3.7-7.6,33.3ZM1292,837.8l27.6,20,22-30.3-32.3-19.1-17.3,29.4ZM94.6,837.9l-17.3-29.4-32.3,19,22,30.4,27.6-20ZM628.8,520l-408.3,124,19.8,65.3,408.3-124-19.8-65.3ZM1160.5,636.2l-514.2-116.8-15.1,66.5,514.2,116.8,15.1-66.5ZM1309.3,808.4c-47.8-28.2-91.9-80.9-125.4-153.3l-61.9,28.7c37.3,80.6,89.4,146.1,152.7,183.4l34.7-58.7ZM693.2,1153.7c263.6,0,496.7-117.2,626.4-295.9l-55.2-40.1c-115.4,159.1-326.9,267.7-571.1,267.7v68.2ZM67,857.9c129.6,178.6,362.7,295.7,626.3,295.7v-68.2c-244.2,0-455.6-108.6-571-267.6l-55.2,40.1ZM199.7,661.9c-33.2,69-76.1,119.3-122.4,146.6l34.6,58.8c61.3-36.1,112.2-98.7,149.3-175.8l-61.5-29.6Z"/>
        </g>
      </g>
      <path id="_路径4" data-name="路径" class="st4" d="M965.4,661.8l163.9,37.2c12.4,24.8,26.2,48,41.4,69.3-55.2,39.3-148.2,88-246.3,88-30.8-.6-92.5-13.6-135.2-44.7-16.5-12-58.9-36.1-95.8-36.1s-79.3,24.1-95.8,36.1c-42.7,31.1-104.4,44.2-135.2,44.7-98.1,0-191.1-48.7-246.3-88,13.9-19.5,26.7-40.7,38.3-63.2l142.3-43.2h568.7Z"/>
      <path id="_路径5" data-name="路径" class="st8" d="M381.8,777.1c19.8-52,71.2-62,94.4-60.5,77.3,3.6,110.2,53.8,107.9,76.2-1.8,17.9-16.5,12.7-22.5,6.7-7.2-7.2-22.5-17.9-29.2-22.4-59.4-35.9-104.2-6-119.2,13.5-5.4,7.2-11.2,10.5-13.5,11.2-23.4,7.2-21.7-13.5-18-24.7Z"/>
      <path id="_路径6" data-name="路径" class="st8" d="M1005,777.1c-19.8-52-71.2-62-94.4-60.5-77.3,3.6-110.2,53.8-107.9,76.2,1.8,17.9,16.5,12.7,22.5,6.7,7.2-7.2,22.5-17.9,29.2-22.4,59.4-35.9,104.2-6,119.2,13.5,5.4,7.2,11.2,10.5,13.5,11.2,23.4,7.2,21.7-13.5,18-24.7Z"/>
      <path id="_路径7" data-name="路径" class="st11" d="M262.5,639.5l14.4,16.8,12.6-18.2,189.2-274.4,11-15.9-17.1-8.9c-54.9-28.5-107.4-43.2-149.3-50-21-3.4-39.4-4.8-54.2-5-14.5-.1-26.6.9-34.6,3h-.5c0,.1-.5.3-.5.3-16.5,5.5-26,21.5-31.3,33.4-5.8,13-9.2,27.2-10.7,37.1v.2s0,.2,0,.2c-16.5,138.9,39.4,244.5,71.2,281.4Z"/>
      <path id="_路径8" data-name="路径" class="st3" d="M209.8,311.9c21.2,49.4,66.2,128.3,131.1,173.1l-60.3,110.5-22.3,32.3c-29-33.7-83.1-134.3-67.2-267.8,1.9-13.2,8-35.4,18.8-48.1Z"/>
      <path id="_形状2" data-name="形状" class="st8" d="M340.9,485l15,8.2,7.4-13.5-12.6-8.7-9.7,14ZM209.8,311.9l15.7-6.7-10.8-25.2-17.8,20.8,13,11.1ZM280.6,595.5l14,9.7.5-.7.4-.8-15-8.2ZM258.3,627.7l-12.9,11.1,14.4,16.7,12.5-18.1-14-9.7ZM191,359.9l-16.9-2.5v.2s0,.2,0,.2l16.9,2ZM350.6,471c-60.9-42.1-104.3-117.5-125.1-165.8l-31.3,13.5c21.7,50.5,68.3,132.9,137.1,180.4l19.4-28.1ZM295.6,603.6l60.3-110.5-29.9-16.3-60.3,110.5,29.9,16.3ZM272.3,637.4l22.3-32.3-28.1-19.4-22.3,32.3,28.1,19.4ZM174.1,357.9c-16.5,138.7,39.5,244.1,71.3,280.9l25.8-22.3c-26.3-30.5-78.5-126.5-63.2-254.6l-33.9-4ZM196.8,300.8c-7.4,8.6-12.4,19.5-15.8,29.2-3.5,9.9-5.7,19.8-6.9,27.4l33.7,5c.8-5.6,2.6-13.4,5.3-21,2.8-7.9,6.1-14.4,9.6-18.4l-25.9-22.2Z"/>
      <path id="_路径9" data-name="路径" class="st11" d="M1124.2,639.5l-14.4,16.8-12.6-18.2-189.2-274.4-11-15.9,17.1-8.9c54.9-28.5,107.4-43.2,149.3-50,20.9-3.4,39.4-4.8,54.2-5,14.5-.1,26.6.9,34.6,3h.5c0,.1.5.3.5.3,16.5,5.5,26,21.5,31.3,33.4,5.8,13,9.2,27.2,10.7,37.1v.2s0,.2,0,.2c16.5,138.9-39.4,244.5-71.2,281.4Z"/>
      <path id="_路径10" data-name="路径" class="st3" d="M1177,311.9c-21.2,49.4-66.2,128.3-131.1,173.1l60.3,110.5,22.3,32.2c29-33.7,83.1-134.3,67.2-267.8-1.9-13.2-8-35.4-18.8-48.1Z"/>
      <path id="_形状3" data-name="形状" class="st8" d="M1045.9,485l-15,8.2-7.4-13.5,12.6-8.7,9.7,14ZM1177,311.9l-15.7-6.7,10.8-25.2,17.8,20.8-13,11.1ZM1106.2,595.5l-14,9.7-.5-.7-.4-.8,15-8.2ZM1128.5,627.7l12.9,11.1-14.4,16.7-12.5-18.1,14-9.7ZM1195.8,359.9l16.9-2.5v.2s0,.2,0,.2l-16.9,2ZM1036.2,471c60.9-42.1,104.3-117.5,125.1-165.8l31.3,13.5c-21.7,50.5-68.3,132.9-137.1,180.4l-19.4-28.1ZM1091.3,603.7l-60.3-110.5,29.9-16.3,60.3,110.5-29.9,16.3ZM1114.5,637.4l-22.3-32.2,28.1-19.4,22.3,32.2-28.1,19.4ZM1212.7,357.9c16.5,138.7-39.5,244.1-71.3,280.9l-25.8-22.3c26.3-30.5,78.5-126.5,63.2-254.6l33.9-4ZM1190,300.8c7.3,8.6,12.4,19.5,15.8,29.2,3.5,9.9,5.7,19.8,6.9,27.4l-33.8,5c-.8-5.6-2.6-13.3-5.3-21-2.8-7.9-6.1-14.4-9.6-18.4l25.9-22.2Z"/>
      <path id="_形状4" data-name="形状" class="st2" d="M633.7,150.2c-36.7,26.2-56.7,70.6-66.6,109-165.7,45.3-295.5,177.7-337.1,344.9l-2.4,2.1c-32.2,27.5-56.3,63.3-69.7,103.4,0,0,207.9-34.1,535.6-34.1s535.6,34.1,535.6,34.1c-13.4-40.2-37.5-75.9-69.7-103.4l-2.4-2.1c-44.8-180.2-192-320-376.3-353.9,33.1-48.9,29.6-99.1,19.1-129.3-2.8-8.2-11.5-12.7-19.9-10.5-33.1,8.6-63.7,29.3-76.2,39.7-1.2-8.7-4.6-16.6-8.7-23.3-6.9-11.2-23.3-8.4-32.9.7-9.8,9.3-21.4,18-28.3,22.6ZM1171,722.9c0-1,0-2.1,0-3.1s0-2.1,0-3.1v6.1Z"/>
      <g id="Clipped2" data-name="Clipped">
        <g class="st16">
          <path id="_形状6" data-name="形状" class="st8" d="M567.1,259.1l9,32.9,19.1-5.2,5-19.1-33-8.6ZM633.7,150.2l-18.9-28.4-.5.3-.4.3,19.8,27.8ZM230,604.1l22.1,25.9,8.3-7.1,2.6-10.6-33.1-8.2ZM227.5,606.2l22.1,25.9h0l-22.1-25.9ZM157.8,709.6l-32.4-10.8-17.9,53.6,55.7-9.1-5.5-33.7ZM1229,709.6l-5.5,33.7,55.7,9.1-17.9-53.6-32.4,10.8ZM1159.3,606.2l-22.1,25.9h0l22.1-25.9ZM1156.9,604.1l-33.1,8.2,2.6,10.6,8.3,7.1,22.1-25.9ZM780.6,250.2l-28.2-19.1-29.3,43.2,51.3,9.5,6.2-33.5ZM799.7,120.9l-32.2,11.1h0l32.2-11.1ZM779.8,110.4l8.6,33h0l-8.6-33ZM703.6,150.2l-33.8,4.5,8.2,61.5,47.5-39.9-21.9-26.1ZM694.9,126.9l29-17.9h0l-29,17.9ZM662.1,127.6l23.5,24.7h0l-23.5-24.7ZM1171,722.9h-34.1l68.2.2-34.1-.2ZM1171,716.7l34.1-.2-68.2.2h34.1ZM600.1,267.7c9.1-35.2,26.3-70.4,53.4-89.8l-39.7-55.5c-46.2,33-69.1,86.7-79.8,128.2l66,17.1ZM263.1,612.3c38.6-155.2,159.2-278.2,313-320.3l-18-65.8c-177.6,48.6-316.6,190.4-361.2,369.6l66.2,16.5ZM249.7,632.1l2.4-2.1-44.3-51.9-2.4,2.1,44.3,51.9ZM190.2,720.4c11.4-34.3,32-64.8,59.5-88.3l-44.3-51.9c-36.9,31.5-64.6,72.5-79.9,118.6l64.7,21.6ZM693.4,641.4c-165,0-299.9,8.6-393.7,17.2-46.9,4.3-83.6,8.6-108.6,11.9-12.5,1.6-22.1,3-28.6,3.9-3.3.5-5.7.9-7.4,1.1-.8.1-1.5.2-1.9.3-.2,0-.4,0-.5,0,0,0-.1,0-.1,0,0,0,0,0,0,0,0,0,0,0,0,0t5.5,33.7q5.5,33.7,5.5,33.7s0,0,0,0h0s0,0,0,0c0,0,.2,0,.4,0,.4,0,.9-.1,1.7-.3,1.5-.2,3.8-.6,6.9-1,6.1-.9,15.3-2.2,27.5-3.8,24.2-3.1,60-7.4,106-11.6,92-8.4,224.9-16.9,387.5-16.9v-68.2ZM1229,709.6q5.5-33.7,5.5-33.7s0,0,0,0c0,0,0,0,0,0,0,0,0,0-.1,0-.1,0-.3,0-.5,0-.5,0-1.1-.2-1.9-.3-1.7-.3-4.2-.6-7.4-1.1-6.5-1-16.1-2.3-28.6-3.9-25-3.3-61.7-7.6-108.6-11.9-93.8-8.6-228.8-17.2-393.7-17.2v68.2c162.6,0,295.5,8.5,387.5,16.9,46,4.2,81.8,8.4,106,11.6,12.1,1.6,21.3,2.9,27.5,3.8,3.1.5,5.4.8,6.9,1,.8.1,1.3.2,1.7.3.2,0,.3,0,.4,0,0,0,0,0,0,0h0s0,0,5.5-33.7ZM1137.1,632.1c27.5,23.5,48,54,59.5,88.3l64.7-21.6c-15.4-46.1-43-87.1-79.9-118.6l-44.3,51.9ZM1134.7,630.1l2.4,2.1,44.3-51.9-2.4-2.1-44.3,51.9ZM774.4,283.7c171,31.5,307.8,161.3,349.4,328.6l66.2-16.5c-48.1-193.1-205.7-342.8-403.2-379.2l-12.4,67.1ZM767.4,132c7.7,22.4,10.8,60.8-15.1,99.1l56.5,38.3c40.4-59.6,36.3-121.4,23.1-159.6l-64.5,22.3ZM788.4,143.4c-8.2,2.1-17.8-2.2-21-11.4l64.5-22.3c-8.9-25.7-35.7-38.9-60.8-32.3l17.3,66ZM725.6,176.3c10-8.4,36.2-25.9,62.8-32.9l-17.3-66c-39.5,10.3-74.6,34.1-89.5,46.6l43.9,52.2ZM665.9,144.7c2.4,3.8,3.6,7.2,4,9.9l67.6-9c-1.9-14.6-7.6-27.1-13.5-36.7l-58.1,35.8ZM685.6,152.3c-.5.5-1.3,1.2-3.7,1.4-1.4.1-4.2,0-7.5-1.4-3.6-1.6-6.6-4.3-8.6-7.4l58.1-35.8c-11.7-19-31.4-24.5-47-23.4-14.7,1.1-28.5,7.7-38.5,17.3l47.1,49.4ZM652.6,178.5c8.1-5.4,21.4-15.2,33-26.3l-47.1-49.4c-8,7.7-18,15.1-23.7,18.9l37.8,56.8ZM1136.9,719.8c0,1,0,1.9,0,2.9l68.2.4c0-1.1,0-2.2,0-3.3h-68.2ZM1136.9,717c0,1,0,1.9,0,2.9h68.2c0-1.1,0-2.2,0-3.3l-68.2.4ZM1205.1,722.9v-6.1h-68.2v6.1h68.2Z"/>
        </g>
      </g>
      <rect id="_矩形" data-name="矩形" class="st9" x="618.2" y="416.2" width="150.1" height="78.5"/>
      <path id="_路径11" data-name="路径" class="st7" d="M300.3,473.2c-6.2-59.1,35.9-112.3,94.9-119.7l121.9-15.4c60.7-7.7,115.9,36,122.3,96.9l3.8,36.1c6.4,60.9-38.5,115.1-99.4,120.2l-122.4,10.3c-59.2,5-111.5-38.3-117.7-97.4l-3.2-30.9Z"/>
      <path id="_路径12" data-name="路径" class="st6" d="M370.1,471.7c-3.7-35,21.3-66.5,56.2-71l72.2-9.1c36-4.6,68.7,21.4,72.5,57.4l2.2,21.4c3.8,36.1-22.8,68.2-59,71.3l-72.6,6.1c-35.1,2.9-66.1-22.7-69.8-57.7l-1.9-18.3Z"/>
      <path id="_形状7" data-name="形状" class="st8" d="M515.5,326.2c66.7-8.4,127.3,39,135.4,105.5l.2,2,3.8,36.1c7,66.8-41.7,126.5-108.3,133.1l-2,.2-122.4,10.3c-65,5.4-122.5-41.5-130.3-106.1l-.2-2-3.2-30.9c-6.8-64.9,38.9-123.3,103.3-132.5l2-.3,121.9-15.4ZM627.4,436.2c-5.6-53.7-53.8-92.3-107.3-86.5l-1.6.2-121.9,15.4c-51.9,6.6-89.3,53.1-84.6,105l.2,1.6,3.2,30.9c5.5,52.1,51.2,90.4,103.2,86.8h1.6c0-.1,122.4-10.4,122.4-10.4,53.8-4.5,93.5-51.9,88.7-105.4l-.2-1.6-3.8-36.1ZM590,439v1.1c.1,0,3.9,36.1,3.9,36.1,3.5,32.9-20.5,62.3-53.3,65.6h-1.1c0,.1-122.4,10.4-122.4,10.4-32,2.7-60.3-20.4-64.2-52.1v-1.1c-.1,0-3.4-30.9-3.4-30.9-3.4-31.9,19.1-60.7,50.8-65.3l1.1-.2,121.9-15.4c32.5-4.1,62,18.6,66.6,50.8v1.1ZM527.2,410.7h-1c0,.1-121.9,15.5-121.9,15.5-19,2.4-32.7,19.3-31.2,38.3v1c0,0,3.3,30.9,3.3,30.9,2,19.1,18.6,33.1,37.6,32h1c0,0,122.4-10.3,122.4-10.3,19.7-1.6,34.3-18.9,32.7-38.5v-1c0,0-3.9-36.1-3.9-36.1-2-19.3-19-33.4-38.2-32h-1Z"/>
      <path id="_路径13" data-name="路径" class="st7" d="M1083,504.1c-6.2,59.1-58.5,102.3-117.7,97.4l-122.4-10.3c-61-5.1-105.8-59.3-99.4-120.2l3.8-36.1c6.4-60.9,61.6-104.6,122.3-96.9l121.9,15.4c58.9,7.5,101.1,60.6,94.9,119.7l-3.3,30.9Z"/>
      <path id="_路径14" data-name="路径" class="st6" d="M1014.6,490c-3.7,35-34.7,60.7-69.8,57.7l-72.6-6.1c-36.1-3-62.7-35.2-59-71.3l2.2-21.4c3.8-36.1,36.5-62,72.5-57.4l72.2,9.1c34.9,4.4,59.9,36,56.2,71l-1.9,18.3Z"/>
      <path id="_形状8" data-name="形状" class="st8" d="M735.4,433.7c7-66.8,67.1-115,133.6-107.7l2,.2,121.9,15.4c64.7,8.2,111.2,66.1,105.4,130.8l-.2,2-3.3,30.9c-6.8,64.9-63.7,112.6-128.6,108.2h-2c0-.1-122.4-10.4-122.4-10.4-67-5.6-116.4-64.6-110.5-131.3l.2-2,3.8-36.1ZM868,349.9c-53.5-6.8-102.2,31.3-108.7,84.7l-.2,1.6-3.8,36.1c-5.6,53.7,33.5,101.5,86.9,106.9h1.6c0,.1,122.4,10.4,122.4,10.4,52.2,4.4,98.3-33.3,104.6-85.1l.2-1.6,3.3-30.9c5.5-52.1-31.3-99-82.9-106.4l-1.6-.2-121.9-15.4ZM862.2,387h1.1c0,.1,121.9,15.5,121.9,15.5,31.9,4,54.7,32.5,52,64.3v1.1c-.1,0-3.4,30.9-3.4,30.9-3.4,31.9-31.3,55.4-63.2,53.3h-1.1c0,0-122.4-10.3-122.4-10.3-33-2.8-57.3-31.8-54.5-64.6v-1.1c.1,0,3.9-36.1,3.9-36.1,3.4-32.5,32.3-56.1,64.6-53.2h1.1ZM820.3,441.6v1c-.1,0-3.9,36.1-3.9,36.1-2.1,19.6,12.2,37.2,31.7,39.3h1c0,0,122.4,10.4,122.4,10.4,19.1,1.6,36-12.1,38.5-31v-1c.1,0,3.4-30.9,3.4-30.9,2-19.1-11.3-36.2-30.2-39.1h-1c0-.1-121.9-15.5-121.9-15.5-19.3-2.4-36.8,10.9-39.9,29.9v1Z"/>
      <path id="_路径15" data-name="路径" class="st3" d="M693.4,812h-18.8c-14.2-.6-42.6,4.8-42.6,30.7.6,9.7,10.6,32.7,46.1,47.8,2.8,1.1,9.9,3.4,15.4,3.4s12.5-2.3,15.4-3.4c35.5-15,45.5-38.1,46.1-47.8,0-25.9-28.4-31.3-42.6-30.7h-18.8Z"/>
      <path id="_路径16" data-name="路径" class="st15" d="M577.4,917.1c9,15,36.5,44.9,74.7,44.9,10.6.6,33.7-3.7,41.3-24.9v-43.2"/>
      <path id="_路径17" data-name="路径" class="st15" d="M809.4,917.1c-9,15-36.5,44.9-74.7,44.9-10.6.6-33.7-3.7-41.3-24.9v-43.2"/>
    </g>
  </g>
</svg>